<svg width="48" height="48" xmlns="http://www.w3.org/2000/svg" xmlns:xlink="http://www.w3.org/1999/xlink" xml:space="preserve" overflow="hidden"><defs><clipPath id="clip0"><rect x="620" y="481" width="48" height="48"/></clipPath></defs><g clip-path="url(#clip0)" transform="translate(-620 -481)"><path d="M637.506 525.037C635.998 525.027 634.746 523.871 634.615 522.369 634.593 522.094 634.798 521.852 635.073 521.83 635.087 521.829 635.101 521.828 635.115 521.828L639.893 521.828C640.17 521.828 640.394 522.051 640.395 522.327 640.395 522.341 640.395 522.355 640.393 522.369 640.266 523.871 639.014 525.028 637.506 525.037ZM635.739 522.828C636.117 523.803 637.214 524.287 638.189 523.909 638.685 523.716 639.077 523.324 639.269 522.828Z" fill="#47A1DE"/><path d="M643.07 518.97 632.07 518.97C631.794 518.97 631.57 518.746 631.57 518.47 631.57 518.194 631.794 517.97 632.07 517.97L643.07 517.97C643.346 517.97 643.57 518.194 643.57 518.47 643.57 518.746 643.346 518.97 643.07 518.97Z" fill="#47A1DE"/><path d="M643.07 514.97 632.07 514.97C631.794 514.97 631.57 514.746 631.57 514.47 631.57 514.194 631.794 513.97 632.07 513.97L643.07 513.97C643.346 513.97 643.57 514.194 643.57 514.47 643.57 514.746 643.346 514.97 643.07 514.97Z" fill="#47A1DE"/><path d="M666 499.05 655.567 499.05 647.596 503.035 647.596 503.035C647.208 503.746 646.742 504.41 646.205 505.015 645.094 506.228 643.918 508.465 643.318 509.691 643.246 509.833 643.101 509.923 642.942 509.923L632.04 509.923C631.884 509.917 631.742 509.83 631.666 509.694 631.062 508.462 629.883 506.217 628.783 505.021 627.93 504.062 627.256 502.957 626.792 501.76 626.305 500.49 626.035 499.147 625.992 497.786L625.992 497.383C625.99 491.031 631.137 485.88 637.488 485.878 643.839 485.876 648.99 491.022 648.992 497.374L648.992 497.771C648.987 497.948 648.977 498.125 648.964 498.302 648.95 498.578 649.162 498.813 649.438 498.827 649.705 498.841 649.936 498.642 649.961 498.376 649.976 498.185 649.986 497.993 649.992 497.786L649.992 497.364C649.989 490.46 644.391 484.866 637.487 484.869 630.584 484.871 624.989 490.47 624.992 497.374L624.992 497.8C625.037 499.278 625.331 500.738 625.861 502.118 626.369 503.429 627.108 504.639 628.042 505.689 629.101 506.839 630.302 509.18 630.771 510.134 631.011 510.614 631.5 510.918 632.037 510.921L642.943 510.921C643.481 510.919 643.972 510.613 644.213 510.132 644.679 509.182 645.877 506.851 646.946 505.682 647.511 505.045 648.004 504.348 648.419 503.604L648.419 503.604 648.487 503.483 655.567 507.05 666 507.05 666 506.05 658.281 506.05C659.937 504.603 660.107 502.087 658.661 500.43 658.543 500.295 658.416 500.168 658.281 500.05L666 500.05ZM658.643 503.05C658.641 504.648 657.386 505.964 655.79 506.043L651.305 503.785 651.305 502.3 655.789 500.06C657.385 500.137 658.64 501.452 658.643 503.05Z" fill="#47A1DE"/></g></svg>