<svg width="58" height="57" xmlns="http://www.w3.org/2000/svg" xmlns:xlink="http://www.w3.org/1999/xlink" xml:space="preserve" overflow="hidden"><defs><clipPath id="clip0"><rect x="142" y="96" width="58" height="57"/></clipPath></defs><g clip-path="url(#clip0)" transform="translate(-142 -96)"><path d="M28.5 33.25C25.8875 33.25 23.75 31.1125 23.75 28.5 23.75 25.8875 25.8875 23.75 28.5 23.75 31.1125 23.75 33.25 25.8875 33.25 28.5 33.25 31.1125 31.1125 33.25 28.5 33.25ZM51.0031 31.4688C50.35 29.6875 49.6375 27.9062 48.7469 26.1844 48.5688 25.8875 48.5688 25.5906 48.7469 25.2937 48.8656 24.9969 49.1625 24.7594 49.4594 24.7L49.8156 24.6406C50.1719 24.5813 50.4688 24.2844 50.5875 23.9281 50.7062 23.5719 50.6469 23.2156 50.35 22.9187 49.2219 21.6125 47.5 19.7125 46.2531 18.525 46.0156 18.2875 45.8969 17.9906 45.9562 17.6344 46.0156 17.3375 46.1938 17.0406 46.4312 16.8625L46.4906 16.8031C46.7875 16.625 47.025 16.2687 47.025 15.8531 47.025 15.4969 46.7875 15.1406 46.4906 14.9625 44.8875 14.1312 42.5719 12.9437 41.0281 12.2906 40.7313 12.1719 40.4937 11.9344 40.4344 11.5781 40.375 11.2812 40.4344 10.925 40.6125 10.6875L40.6719 10.5687C40.9094 10.2719 40.9688 9.85625 40.7906 9.5 40.6125 9.14375 40.3156 8.90625 39.9594 8.90625 38.1781 8.7875 35.5656 8.55 33.9031 8.55 33.6063 8.55 33.3094 8.37187 33.0719 8.13437 32.8937 7.89687 32.8344 7.54063 32.8937 7.24375L32.8937 7.125C33.0125 6.76875 32.8937 6.35313 32.5969 6.11562 32.3 5.87812 31.9438 5.75938 31.5875 5.87812 29.925 6.4125 27.4312 7.24375 25.8875 7.89687 25.5906 8.01562 25.2344 8.01562 24.9969 7.8375 24.7 7.65937 24.5219 7.42188 24.5219 7.06562L24.5219 6.94688C24.4625 6.59063 24.225 6.23438 23.8687 6.11562 23.5125 5.99688 23.0969 6.05625 22.8594 6.29375 21.4937 7.48125 19.5344 9.20312 18.3469 10.3313 18.1094 10.5687 17.8125 10.6875 17.5156 10.6281 17.2188 10.5687 16.9219 10.3906 16.7437 10.1531L16.6844 10.0344C16.5063 9.7375 16.15 9.5 15.7937 9.55937 15.4375 9.55937 15.0813 9.79688 14.9031 10.0938 14.0719 11.6969 12.9437 14.0719 12.2906 15.5563 12.1719 15.8531 11.9344 16.0906 11.6375 16.15 11.3406 16.2094 10.9844 16.15 10.7469 15.9719L10.6281 16.0312C10.3313 15.7937 9.91563 15.7344 9.55937 15.9125 9.20312 16.0906 8.96562 16.3875 8.96562 16.7437 8.84688 18.525 8.60938 21.1375 8.60938 22.8 8.60938 23.0969 8.49063 23.3938 8.19375 23.6313 7.95625 23.8094 7.6 23.8687 7.30312 23.8094L7.18438 23.8094C6.82812 23.6906 6.4125 23.8094 6.175 24.1062 5.9375 24.4031 5.81875 24.7594 5.9375 25.1156 6.47187 26.7781 7.30312 29.3313 7.89687 30.875 8.01562 31.1719 8.01562 31.5281 7.8375 31.7656 7.71875 32.0625 7.48125 32.2406 7.125 32.3L7.00625 32.3C6.65 32.3594 6.29375 32.5969 6.175 32.9531 6.05625 33.3094 6.11562 33.725 6.35313 33.9625 7.48125 35.3281 9.20312 37.3469 10.3906 38.5344 10.6281 38.7719 10.6875 39.0688 10.6875 39.425 10.6281 39.7219 10.45 40.0187 10.2125 40.1969L10.1531 40.1969C9.79688 40.375 9.61875 40.7313 9.61875 41.1469 9.61875 41.5625 9.85625 41.8594 10.2125 42.0375L15.675 44.65C15.9719 44.7687 16.2094 45.0656 16.2687 45.3625 16.3281 45.6594 16.2687 46.0156 16.0312 46.2531L15.9125 46.3125C15.675 46.6094 15.6156 47.025 15.7937 47.3813 15.9719 47.7375 16.2687 47.975 16.6844 47.975L22.7406 48.2719C23.0375 48.2719 23.3344 48.45 23.5125 48.6875 23.6906 48.925 23.75 49.2812 23.6906 49.5781L23.6313 49.7563C23.5125 50.1125 23.6313 50.5281 23.9281 50.7656 24.225 51.0031 24.5813 51.1219 24.9969 51.0031L30.7563 48.925C31.0531 48.8656 31.35 48.8656 31.5875 48.9844 31.825 49.1031 32.0031 49.4 32.0625 49.6375L32.1813 50.1125C32.2406 50.4688 32.5375 50.7656 32.8937 50.8844 33.25 51.0031 33.6656 50.8844 33.9031 50.6469L38.1781 46.4906C38.4156 46.2531 38.7125 46.1938 39.0094 46.1938 39.3062 46.2531 39.6031 46.4312 39.7219 46.6688L39.8406 46.8469C40.0187 47.2031 40.375 47.3813 40.7906 47.3813 41.1469 47.3813 41.5031 47.1437 41.6812 46.7875L44.3531 41.0281C44.4719 40.7906 44.65 40.5531 44.8875 40.4937 45.125 40.375 45.4219 40.375 45.6594 40.4937L46.3719 40.7906C46.6688 40.9094 47.0844 40.9094 47.3219 40.6719 47.6187 40.4937 47.7969 40.1375 47.7969 39.7812L47.7969 33.7844C47.7969 33.1906 48.2719 32.775 48.8062 32.775L49.9937 32.775C50.2906 32.775 50.6469 32.5969 50.825 32.3 51.0625 32.1219 51.1219 31.7656 51.0031 31.4688Z" fill="#47A1DE" transform="matrix(1.01754 0 0 1 142 96)"/></g></svg>