<svg width="48" height="48" xmlns="http://www.w3.org/2000/svg" xmlns:xlink="http://www.w3.org/1999/xlink" xml:space="preserve" overflow="hidden"><defs><clipPath id="clip0"><rect x="1078" y="293" width="48" height="48"/></clipPath></defs><g clip-path="url(#clip0)" transform="translate(-1078 -293)"><path d="M1097 304 1107 304C1107.3 304 1107.5 303.8 1107.5 303.5 1107.5 303.2 1107.3 303 1107 303L1097 303C1096.7 303 1096.5 303.2 1096.5 303.5 1096.5 303.8 1096.7 304 1097 304Z" fill="#47A1DE"/><path d="M1107.5 305 1096.5 305 1096.5 311.5 1107.5 311.5 1107.5 305ZM1106.5 310.5 1097.5 310.5 1097.5 306 1106.5 306 1106.5 310.5Z" fill="#47A1DE"/><path d="M1115.8 322.1C1114 320.6 1111.85 319.7 1109.55 318.9L1107.1 317.9C1106.8 317.8 1106.6 317.55 1106.5 317.25 1108.65 316.1 1110 313.9 1110.05 311.45L1110.05 302.85C1110.05 301 1108.55 299.5 1106.7 299.5L1097.25 299.5C1095.4 299.5 1093.9 301 1093.9 302.85L1093.9 311.45C1093.9 313.9 1095.25 316.15 1097.4 317.25 1097.3 317.55 1097.1 317.8 1096.8 317.9L1094.3 318.9C1092.3 319.55 1090.45 320.45 1088.7 321.65L1088.7 322.9C1088.7 322.9 1088.7 322.9 1088.75 322.85 1090.15 321.75 1091.75 320.9 1093.45 320.25L1093.45 325.5C1092.55 325.75 1091.95 326.5 1091.95 327.45L1091.95 334.75C1090.9 334.6 1089.9 334.35 1088.9 334.05 1089.55 333.45 1089.9 332.6 1089.95 331.7 1089.95 330.5 1089.25 329.45 1088.2 328.9L1088.1 328.85C1087.95 328.8 1087.85 328.75 1087.7 328.7L1087.7 322.95C1087.7 322.65 1087.6 322.3 1087.35 322.1L1086.2 320.95 1086.55 320.6 1086.45 319.5 1084.6 318.95 1084.5 318.7C1083.7 316.9 1082.15 315.8 1079.9 315.5L1079.15 315.4 1079.35 316.1C1079.85 318.1 1081.45 319.6 1083.45 319.95L1083.55 319.95 1084.1 321.8 1085.25 321.95 1085.6 321.6 1086.75 322.75C1086.8 322.8 1086.8 322.85 1086.8 322.9L1086.8 328.5C1086.75 328.5 1086.7 328.5 1086.65 328.5 1084.7 328.5 1083.55 328.7 1083.55 331.75 1083.55 334.8 1084.7 335 1086.55 335L1086.55 335C1086.6 335 1086.65 335 1086.65 335 1087.1 335 1087.5 334.9 1087.9 334.75 1090.85 335.9 1096.5 336.5 1102.15 336.5 1108.7 336.5 1115.2 335.7 1117.3 334.15L1117.5 334 1117.5 325.5C1117.45 324.15 1116.85 322.95 1115.8 322.1ZM1083.3 318.95C1082.1 318.65 1081.1 317.8 1080.55 316.65 1081.75 316.9 1082.8 317.7 1083.4 318.8L1083.3 318.95ZM1084.55 320 1084.55 320 1085.55 320.25 1085.55 320.25 1084.85 320.95 1084.55 320ZM1086.55 334C1084.95 334 1084.5 334 1084.5 331.75 1084.5 329.5 1084.95 329.5 1086.6 329.5 1087 329.5 1087.35 329.6 1087.7 329.75L1087.8 329.8C1088.5 330.15 1089 330.9 1089 331.7 1088.95 333.05 1087.85 334.05 1086.55 334ZM1109.5 319.95 1109.5 325.5 1107.5 325.5 1107.5 319.1 1109.5 319.95ZM1097.5 320.35C1098.95 320.8 1100.45 321.05 1102 321 1103.55 321 1105.05 320.8 1106.5 320.35L1106.5 325.5 1097.5 325.5 1097.5 320.35ZM1094.95 311.45 1094.95 302.85C1094.95 301.55 1096 300.5 1097.3 300.5L1106.75 300.5C1108.05 300.5 1109.1 301.55 1109.1 302.85L1109.1 311.45C1109.05 314.5 1106.55 317 1103.5 317L1100.5 317C1097.45 317 1094.95 314.5 1094.95 311.45L1094.95 311.45ZM1100.5 318 1103.5 318C1104.2 318 1104.95 317.9 1105.6 317.65 1105.75 318.1 1106.05 318.45 1106.5 318.7L1106.5 319.3C1105.05 319.8 1103.55 320.05 1102 320.05 1100.45 320.05 1098.95 319.85 1097.5 319.3L1097.5 318.7C1097.9 318.45 1098.2 318.1 1098.35 317.65 1099.05 317.9 1099.8 318 1100.5 318ZM1096.5 319.1 1096.5 325.5 1094.5 325.5 1094.5 319.95 1096.5 319.1ZM1093 334.95 1093 327.5C1093 326.95 1093.45 326.5 1094 326.5L1110 326.5C1110.55 326.5 1111 326.95 1111 327.5L1111 335C1105 335.7 1099 335.7 1093 334.95ZM1116.5 333.5C1115.6 334.05 1114 334.5 1112 334.85L1112 327.5C1112 326.6 1111.4 325.8 1110.5 325.55L1110.5 320.3C1112.2 320.9 1113.75 321.8 1115.2 322.9 1116 323.5 1116.5 324.5 1116.5 325.5L1116.5 333.5Z" fill="#47A1DE"/></g></svg>