<svg width="53" height="53" xmlns="http://www.w3.org/2000/svg" xmlns:xlink="http://www.w3.org/1999/xlink" xml:space="preserve" overflow="hidden"><defs><clipPath id="clip0"><rect x="146" y="285" width="53" height="53"/></clipPath></defs><g clip-path="url(#clip0)" transform="translate(-146 -285)"><path d="M148.264 309.402 151.3 301.452C151.41 301.121 151.631 300.845 151.852 300.624L153.453 299.023 152.625 298.14C152.183 297.698 152.183 296.925 152.625 296.483L154.336 294.772C154.778 294.33 155.551 294.33 155.993 294.772L156.876 295.6 161.79 290.686C162.231 290.245 163.004 290.245 163.446 290.686L168.801 296.097C169.243 296.539 169.243 297.311 168.801 297.753L164.053 302.556 191.547 328.835C191.989 329.277 191.989 330.05 191.547 330.492L188.29 333.749C187.848 334.191 187.075 334.191 186.633 333.749L160.354 306.255 158.974 307.635C158.698 307.911 158.367 308.077 158.035 308.188L149.754 310.893C149.312 311.003 148.871 310.893 148.54 310.561 148.208 310.285 148.098 309.789 148.264 309.402Z" fill="#47A1DE"/><path d="M181.389 300.679 174.211 295.931C173.935 295.71 173.77 295.434 173.715 295.103 173.715 294.772 173.825 294.441 174.046 294.165L179.015 289.251C179.401 288.865 180.064 288.809 180.505 289.141L188.952 294.772C189.007 294.772 189.062 294.827 189.062 294.882L189.118 294.938 190.719 296.539 190.829 296.649 190.884 296.704 190.884 296.759 196.571 305.041C196.902 305.482 196.847 306.145 196.46 306.531L191.492 311.445C191.271 311.666 190.884 311.831 190.553 311.776 190.222 311.721 189.891 311.555 189.67 311.279L185.032 304.323 177.524 312.163 173.439 308.243 181.389 300.679Z" fill="#47A1DE"/><path d="M156.876 333.749C156.434 334.191 155.661 334.191 155.22 333.749L151.907 330.436C151.466 329.995 151.466 329.222 151.907 328.78L165.875 315.475 170.126 319.892 156.876 333.749Z" fill="#47A1DE"/></g></svg>